<svg width="24" height="24" viewBox="0 0 24 24" fill="none" xmlns="http://www.w3.org/2000/svg">
<g clip-path="url(#clip0_1_1254)">
<path d="M14.9662 5.55473H9.03258C8.97575 5.55473 8.92125 5.53216 8.88106 5.49197C8.84088 5.45178 8.8183 5.39728 8.8183 5.34045C8.8266 4.95888 8.92224 4.58429 9.09787 4.24544C9.2735 3.90659 9.52445 3.61249 9.83144 3.38573L10.7743 2.64902C10.7975 2.63098 10.8242 2.6179 10.8526 2.61061C10.8811 2.60331 10.9108 2.60196 10.9398 2.60662C10.9688 2.61128 10.9966 2.62186 11.0214 2.63771C11.0461 2.65356 11.0673 2.67433 11.0837 2.69873H12.9146C12.931 2.67433 12.9522 2.65356 12.977 2.63771C13.0017 2.62186 13.0295 2.61128 13.0585 2.60662C13.0875 2.60196 13.1172 2.60331 13.1457 2.61061C13.1741 2.6179 13.2008 2.63098 13.224 2.64902L14.1669 3.38573C14.4739 3.61256 14.7249 3.90673 14.9005 4.24565C15.0761 4.58458 15.1717 4.95924 15.18 5.34088C15.1799 5.39756 15.1573 5.45189 15.1172 5.49197C15.0772 5.53205 15.0228 5.55462 14.9662 5.55473ZM9.25973 5.12616H14.739C14.6994 4.84871 14.6051 4.58188 14.4616 4.34111C14.3182 4.10034 14.1284 3.8904 13.9033 3.72345L13.1344 3.12345C13.1203 3.12627 13.106 3.1277 13.0916 3.12773H10.9059C10.8915 3.12768 10.8771 3.12624 10.863 3.12345L10.0946 3.72345C9.86963 3.89048 9.68002 4.10045 9.53672 4.34122C9.39342 4.58199 9.29927 4.84878 9.25973 5.12616Z" fill="white"/>
<path d="M5.20603 23.0466H1.99431C1.93748 23.0466 1.88298 23.024 1.84279 22.9838C1.80261 22.9436 1.78003 22.8891 1.78003 22.8323V12.5037C1.78003 12.4469 1.80261 12.3924 1.84279 12.3522C1.88298 12.312 1.93748 12.2895 1.99431 12.2895H5.20603C5.26286 12.2895 5.31737 12.312 5.35755 12.3522C5.39774 12.3924 5.42031 12.4469 5.42031 12.5037V22.8323C5.42031 22.8891 5.39774 22.9436 5.35755 22.9838C5.31737 23.024 5.26286 23.0466 5.20603 23.0466ZM2.2086 22.618H4.99174V12.718H2.2086V22.618Z" fill="white"/>
<path d="M22.006 23.0466H18.7943C18.7375 23.0466 18.683 23.024 18.6428 22.9838C18.6026 22.9436 18.58 22.8891 18.58 22.8323V12.5037C18.58 12.4469 18.6026 12.3924 18.6428 12.3522C18.683 12.312 18.7375 12.2895 18.7943 12.2895H22.006C22.0628 12.2895 22.1174 12.312 22.1575 12.3522C22.1977 12.3924 22.2203 12.4469 22.2203 12.5037V22.8323C22.2203 22.8891 22.1977 22.9436 22.1575 22.9838C22.1174 23.024 22.0628 23.0466 22.006 23.0466ZM19.0086 22.618H21.7917V12.718H19.0086V22.618Z" fill="white"/>
<path d="M10.2541 23.0466H8.70092C8.64409 23.0466 8.58958 23.024 8.5494 22.9838C8.50921 22.9436 8.48663 22.8891 8.48663 22.8323V16.3733C8.48663 16.3164 8.50921 16.2619 8.5494 16.2217C8.58958 16.1816 8.64409 16.159 8.70092 16.159H10.2541C10.3109 16.159 10.3654 16.1816 10.4056 16.2217C10.4458 16.2619 10.4683 16.3164 10.4683 16.3733V22.8323C10.4683 22.8891 10.4458 22.9436 10.4056 22.9838C10.3654 23.024 10.3109 23.0466 10.2541 23.0466ZM8.9152 22.618H10.0398V16.5876H8.9152V22.618Z" fill="white"/>
<path d="M13.7462 23.0466H10.2525C10.1957 23.0466 10.1412 23.024 10.101 22.9838C10.0608 22.9436 10.0382 22.8891 10.0382 22.8323V16.3733C10.0382 16.3164 10.0608 16.2619 10.101 16.2217C10.1412 16.1816 10.1957 16.159 10.2525 16.159H13.7462C13.803 16.159 13.8575 16.1816 13.8977 16.2217C13.9379 16.2619 13.9605 16.3164 13.9605 16.3733V22.8323C13.9605 22.8891 13.9379 22.9436 13.8977 22.9838C13.8575 23.024 13.803 23.0466 13.7462 23.0466ZM10.4668 22.618H13.5319V16.5876H10.4668V22.618Z" fill="white"/>
<path d="M6.75998 23.0466H5.20641C5.14958 23.0466 5.09508 23.024 5.05489 22.9838C5.0147 22.9436 4.99213 22.8891 4.99213 22.8323V16.3733C4.99213 16.3164 5.0147 16.2619 5.05489 16.2217C5.09508 16.1816 5.14958 16.159 5.20641 16.159H6.75998C6.81682 16.159 6.87132 16.1816 6.91151 16.2217C6.95169 16.2619 6.97427 16.3164 6.97427 16.3733V22.8323C6.97427 22.8891 6.95169 22.9436 6.91151 22.9838C6.87132 23.024 6.81682 23.0466 6.75998 23.0466ZM5.4207 22.618H6.5457V16.5876H5.4207V22.618Z" fill="white"/>
<path d="M8.70015 23.0466H6.75915C6.70231 23.0466 6.64781 23.024 6.60762 22.9838C6.56744 22.9436 6.54486 22.8891 6.54486 22.8323V16.3733C6.54486 16.3164 6.56744 16.2619 6.60762 16.2217C6.64781 16.1816 6.70231 16.159 6.75915 16.159H8.70015C8.75698 16.159 8.81148 16.1816 8.85167 16.2217C8.89186 16.2619 8.91443 16.3164 8.91443 16.3733V22.8323C8.91443 22.8891 8.89186 22.9436 8.85167 22.9838C8.81148 23.024 8.75698 23.0466 8.70015 23.0466ZM6.97343 22.618H8.48586V16.5876H6.97343V22.618Z" fill="white"/>
<path d="M18.794 23.0466H17.2404C17.1836 23.0466 17.1291 23.024 17.0889 22.9838C17.0487 22.9436 17.0261 22.8891 17.0261 22.8323V16.3733C17.0261 16.3164 17.0487 16.2619 17.0889 16.2217C17.1291 16.1816 17.1836 16.159 17.2404 16.159H18.794C18.8508 16.159 18.9053 16.1816 18.9455 16.2217C18.9857 16.2619 19.0083 16.3164 19.0083 16.3733V22.8323C19.0083 22.8891 18.9857 22.9436 18.9455 22.9838C18.9053 23.024 18.8508 23.0466 18.794 23.0466ZM17.4547 22.618H18.5797V16.5876H17.4547V22.618Z" fill="white"/>
<path d="M15.3002 23.0466H13.7471C13.6902 23.0466 13.6357 23.024 13.5955 22.9838C13.5554 22.9436 13.5328 22.8891 13.5328 22.8323V16.3733C13.5328 16.3164 13.5554 16.2619 13.5955 16.2217C13.6357 16.1816 13.6902 16.159 13.7471 16.159H15.3002C15.357 16.159 15.4115 16.1816 15.4517 16.2217C15.4919 16.2619 15.5145 16.3164 15.5145 16.3733V22.8323C15.5145 22.8891 15.4919 22.9436 15.4517 22.9838C15.4115 23.024 15.357 23.0466 15.3002 23.0466ZM13.9613 22.618H15.0859V16.5876H13.9613V22.618Z" fill="white"/>
<path d="M17.2408 23.0466H15.2998C15.243 23.0466 15.1885 23.024 15.1483 22.9838C15.1081 22.9436 15.0855 22.8891 15.0855 22.8323V16.3733C15.0855 16.3164 15.1081 16.2619 15.1483 16.2217C15.1885 16.1816 15.243 16.159 15.2998 16.159H17.2408C17.2976 16.159 17.3521 16.1816 17.3923 16.2217C17.4325 16.2619 17.4551 16.3164 17.4551 16.3733V22.8323C17.4551 22.8891 17.4325 22.9436 17.3923 22.9838C17.3521 23.024 17.2976 23.0466 17.2408 23.0466ZM15.5141 22.618H17.0265V16.5876H15.5141V22.618Z" fill="white"/>
<path d="M18.7956 16.5874H5.20641C5.14958 16.5874 5.09508 16.5648 5.05489 16.5246C5.0147 16.4844 4.99213 16.4299 4.99213 16.3731V15.4199C4.99213 15.3631 5.0147 15.3086 5.05489 15.2684C5.09508 15.2282 5.14958 15.2057 5.20641 15.2057H18.7956C18.8524 15.2057 18.9069 15.2282 18.9471 15.2684C18.9873 15.3086 19.0098 15.3631 19.0098 15.4199V16.3731C19.0098 16.4299 18.9873 16.4844 18.9471 16.5246C18.9069 16.5648 18.8524 16.5874 18.7956 16.5874ZM5.4207 16.1588H18.5813V15.6342H5.4207V16.1588Z" fill="white"/>
<path d="M23.1358 24.0001H0.864615C0.807783 24.0001 0.753279 23.9775 0.713092 23.9373C0.672906 23.8971 0.65033 23.8426 0.65033 23.7858V22.8326C0.65033 22.7758 0.672906 22.7213 0.713092 22.6811C0.753279 22.6409 0.807783 22.6184 0.864615 22.6184H23.1358C23.1926 22.6184 23.2471 22.6409 23.2873 22.6811C23.3275 22.7213 23.35 22.7758 23.35 22.8326V23.7858C23.35 23.8426 23.3275 23.8971 23.2873 23.9373C23.2471 23.9775 23.1926 24.0001 23.1358 24.0001ZM1.0789 23.5715H22.9215V23.0469H1.0789V23.5715Z" fill="white"/>
<path d="M18.7956 15.6345H5.20641C5.14958 15.6345 5.09508 15.6119 5.05489 15.5717C5.0147 15.5315 4.99213 15.477 4.99213 15.4202V13.8203C4.99213 13.7635 5.0147 13.709 5.05489 13.6688C5.09508 13.6286 5.14958 13.6061 5.20641 13.6061H18.7956C18.8524 13.6061 18.9069 13.6286 18.9471 13.6688C18.9873 13.709 19.0098 13.7635 19.0098 13.8203V15.4202C19.0098 15.477 18.9873 15.5315 18.9471 15.5717C18.9069 15.6119 18.8524 15.6345 18.7956 15.6345ZM5.4207 15.2059H18.5813V14.0346H5.4207V15.2059Z" fill="white"/>
<path d="M10.2533 14.0347H6.75915C6.70231 14.0347 6.64781 14.0121 6.60762 13.9719C6.56744 13.9318 6.54486 13.8773 6.54486 13.8204V12.5026C6.54486 12.4457 6.56744 12.3912 6.60762 12.351C6.64781 12.3109 6.70231 12.2883 6.75915 12.2883H10.2533C10.3101 12.2883 10.3646 12.3109 10.4048 12.351C10.445 12.3912 10.4676 12.4457 10.4676 12.5026V13.8204C10.4676 13.8773 10.445 13.9318 10.4048 13.9719C10.3646 14.0121 10.3101 14.0347 10.2533 14.0347ZM6.97343 13.6061H10.039V12.7168H6.97343V13.6061Z" fill="white"/>
<path d="M17.2412 14.0347H13.7471C13.6902 14.0347 13.6357 14.0121 13.5955 13.9719C13.5554 13.9318 13.5328 13.8773 13.5328 13.8204V12.5026C13.5328 12.4457 13.5554 12.3912 13.5955 12.351C13.6357 12.3109 13.6902 12.2883 13.7471 12.2883H17.2412C17.298 12.2883 17.3525 12.3109 17.3927 12.351C17.4329 12.3912 17.4555 12.4457 17.4555 12.5026V13.8204C17.4555 13.8773 17.4329 13.9318 17.3927 13.9719C17.3525 14.0121 17.298 14.0347 17.2412 14.0347ZM13.9613 13.6061H17.0269V12.7168H13.9613V13.6061Z" fill="white"/>
<path d="M9.94716 12.7172H7.45287C7.39604 12.7172 7.34154 12.6946 7.30135 12.6544C7.26116 12.6142 7.23859 12.5597 7.23859 12.5029V10.9287C7.23859 10.8719 7.26116 10.8174 7.30135 10.7772C7.34154 10.737 7.39604 10.7145 7.45287 10.7145H9.94716C10.004 10.7145 10.0585 10.737 10.0987 10.7772C10.1389 10.8174 10.1614 10.8719 10.1614 10.9287V12.505C10.1609 12.5615 10.1381 12.6154 10.0979 12.6552C10.0578 12.6949 10.0036 12.7172 9.94716 12.7172ZM7.66716 12.2886H9.73287V11.143H7.66716V12.2886Z" fill="white"/>
<path d="M9.67048 11.1168H7.72948C7.67265 11.1168 7.61815 11.0942 7.57796 11.054C7.53777 11.0138 7.5152 10.9593 7.5152 10.9025V9.3262C7.5152 9.26937 7.53777 9.21487 7.57796 9.17468C7.61815 9.13449 7.67265 9.11192 7.72948 9.11192H9.67048C9.72732 9.11192 9.78182 9.13449 9.82201 9.17468C9.86219 9.21487 9.88477 9.26937 9.88477 9.3262V10.9025C9.88477 10.9593 9.86219 11.0138 9.82201 11.054C9.78182 11.0942 9.72732 11.1168 9.67048 11.1168ZM7.94377 10.6882H9.4562V9.54049H7.94377V10.6882Z" fill="white"/>
<path d="M16.2705 11.1168H14.3295C14.2726 11.1168 14.2181 11.0942 14.1779 11.054C14.1377 11.0138 14.1152 10.9593 14.1152 10.9025V9.3262C14.1152 9.26937 14.1377 9.21487 14.1779 9.17468C14.2181 9.13449 14.2726 9.11192 14.3295 9.11192H16.2705C16.3273 9.11192 16.3818 9.13449 16.422 9.17468C16.4622 9.21487 16.4847 9.26937 16.4847 9.3262V10.9025C16.4847 10.9593 16.4622 11.0138 16.422 11.054C16.3818 11.0942 16.3273 11.1168 16.2705 11.1168ZM14.5437 10.6882H16.0562V9.54049H14.5437V10.6882Z" fill="white"/>
<path d="M16.6657 9.51739H7.33568C7.27885 9.51739 7.22435 9.49481 7.18416 9.45463C7.14398 9.41444 7.1214 9.35994 7.1214 9.30311V8.22053C7.1214 8.1637 7.14398 8.1092 7.18416 8.06901C7.22435 8.02882 7.27885 8.00625 7.33568 8.00625H16.6657C16.7225 8.00625 16.777 8.02882 16.8172 8.06901C16.8574 8.1092 16.88 8.1637 16.88 8.22053V9.30311C16.88 9.35994 16.8574 9.41444 16.8172 9.45463C16.777 9.49481 16.7225 9.51739 16.6657 9.51739ZM7.54997 9.08882H16.4514V8.43482H7.54997V9.08882Z" fill="white"/>
<path d="M16.5472 12.7172H14.0529C13.9961 12.7172 13.9416 12.6946 13.9014 12.6544C13.8612 12.6142 13.8386 12.5597 13.8386 12.5029V10.9287C13.8386 10.8719 13.8612 10.8174 13.9014 10.7772C13.9416 10.737 13.9961 10.7145 14.0529 10.7145H16.5472C16.604 10.7145 16.6585 10.737 16.6987 10.7772C16.7389 10.8174 16.7615 10.8719 16.7615 10.9287V12.505C16.7609 12.5615 16.7381 12.6154 16.698 12.6552C16.6578 12.6949 16.6037 12.7172 16.5472 12.7172ZM14.2672 12.2886H16.3329V11.143H14.2672V12.2886Z" fill="white"/>
<path d="M14.3295 11.0462H9.6701C9.61326 11.0462 9.55876 11.0236 9.51857 10.9834C9.47839 10.9432 9.45581 10.8887 9.45581 10.8319V9.30276C9.45581 9.24593 9.47839 9.19143 9.51857 9.15124C9.55876 9.11105 9.61326 9.08848 9.6701 9.08848H14.3295C14.3864 9.08848 14.4409 9.11105 14.481 9.15124C14.5212 9.19143 14.5438 9.24593 14.5438 9.30276V10.8319C14.5438 10.8887 14.5212 10.9432 14.481 10.9834C14.4409 11.0236 14.3864 11.0462 14.3295 11.0462ZM9.88438 10.6176H14.1152V9.51705H9.88438V10.6176Z" fill="white"/>
<path d="M5.20603 11.8832H1.99432C1.93749 11.8832 1.88298 11.8606 1.8428 11.8204C1.80261 11.7802 1.78003 11.7257 1.78003 11.6689C1.77898 11.1508 1.98316 10.6534 2.34789 10.2855L3.44932 9.19004C3.48947 9.15013 3.54378 9.12773 3.60039 9.12773C3.657 9.12773 3.71131 9.15013 3.75146 9.19004L4.85246 10.2855C5.21694 10.6529 5.4211 11.1497 5.42032 11.6672C5.42054 11.6955 5.41517 11.7235 5.4045 11.7497C5.39383 11.7759 5.37809 11.7997 5.35816 11.8198C5.33824 11.8399 5.31454 11.8558 5.28843 11.8667C5.26232 11.8776 5.23432 11.8832 5.20603 11.8832ZM2.22403 11.4546H4.97675C4.93179 11.1278 4.78131 10.8245 4.54818 10.591L3.6006 9.64604L2.65046 10.591C2.41825 10.8249 2.26855 11.1281 2.22403 11.4546Z" fill="white"/>
<path d="M5.20603 12.7172H1.99431C1.93748 12.7172 1.88298 12.6946 1.84279 12.6545C1.80261 12.6143 1.78003 12.5598 1.78003 12.5029V11.6694C1.78003 11.6125 1.80261 11.558 1.84279 11.5178C1.88298 11.4777 1.93748 11.4551 1.99431 11.4551H5.20603C5.26286 11.4551 5.31737 11.4777 5.35755 11.5178C5.39774 11.558 5.42031 11.6125 5.42031 11.6694V12.5029C5.42031 12.5598 5.39774 12.6143 5.35755 12.6545C5.31737 12.6946 5.26286 12.7172 5.20603 12.7172ZM2.2086 12.2886H4.99174V11.8836H2.2086V12.2886Z" fill="white"/>
<path d="M22.006 11.8832H18.7943C18.7375 11.8832 18.683 11.8606 18.6428 11.8204C18.6026 11.7802 18.58 11.7257 18.58 11.6689C18.5788 11.1508 18.783 10.6533 19.1479 10.2855L20.2489 9.19004C20.289 9.15013 20.3433 9.12773 20.4 9.12773C20.4566 9.12773 20.5109 9.15013 20.551 9.19004L21.6525 10.2855C22.0168 10.653 22.2209 11.1497 22.2203 11.6672C22.2205 11.6955 22.2152 11.7235 22.2045 11.7497C22.1938 11.7759 22.1781 11.7997 22.1582 11.8198C22.1382 11.8399 22.1145 11.8558 22.0884 11.8667C22.0623 11.8776 22.0343 11.8832 22.006 11.8832ZM19.0236 11.4546H21.7767C21.7314 11.1279 21.581 10.8247 21.3482 10.591L20.3997 9.64604L19.4496 10.591C19.2174 10.8249 19.0678 11.1281 19.0236 11.4546Z" fill="white"/>
<path d="M22.006 12.7172H18.7943C18.7375 12.7172 18.683 12.6946 18.6428 12.6545C18.6026 12.6143 18.58 12.5598 18.58 12.5029V11.6694C18.58 11.6125 18.6026 11.558 18.6428 11.5178C18.683 11.4777 18.7375 11.4551 18.7943 11.4551H22.006C22.0628 11.4551 22.1174 11.4777 22.1575 11.5178C22.1977 11.558 22.2203 11.6125 22.2203 11.6694V12.5029C22.2203 12.5598 22.1977 12.6143 22.1575 12.6545C22.1174 12.6946 22.0628 12.7172 22.006 12.7172ZM19.0086 12.2886H21.7917V11.8836H19.0086V12.2886Z" fill="white"/>
<path d="M14.9657 7.09406H9.03258C8.97575 7.09406 8.92125 7.07148 8.88106 7.03129C8.84088 6.99111 8.8183 6.9366 8.8183 6.87977V5.33948C8.8183 5.28265 8.84088 5.22815 8.88106 5.18796C8.92125 5.14777 8.97575 5.1252 9.03258 5.1252H14.9657C15.0226 5.1252 15.0771 5.14777 15.1172 5.18796C15.1574 5.22815 15.18 5.28265 15.18 5.33948V6.87977C15.18 6.9366 15.1574 6.99111 15.1172 7.03129C15.0771 7.07148 15.0226 7.09406 14.9657 7.09406ZM9.24687 6.66548H14.7514V5.55377H9.24687V6.66548Z" fill="white"/>
<path d="M16.2709 8.43461H7.72948C7.67265 8.43461 7.61815 8.41203 7.57796 8.37185C7.53777 8.33166 7.5152 8.27716 7.5152 8.22032V6.87932C7.5152 6.82249 7.53777 6.76799 7.57796 6.7278C7.61815 6.68762 7.67265 6.66504 7.72948 6.66504H16.2709C16.3277 6.66504 16.3822 6.68762 16.4224 6.7278C16.4626 6.76799 16.4852 6.82249 16.4852 6.87932V8.22032C16.4852 8.27716 16.4626 8.33166 16.4224 8.37185C16.3822 8.41203 16.3277 8.43461 16.2709 8.43461ZM7.94377 8.00604H16.0566V7.09361H7.94377V8.00604Z" fill="white"/>
<path d="M13.0933 3.12845H10.9076C10.8508 3.12845 10.7962 3.10588 10.7561 3.06569C10.7159 3.0255 10.6933 2.971 10.6933 2.91417V1.49045C10.6933 1.43362 10.7159 1.37912 10.7561 1.33893C10.7962 1.29875 10.8508 1.27617 10.9076 1.27617H13.0933C13.1501 1.27617 13.2046 1.29875 13.2448 1.33893C13.285 1.37912 13.3076 1.43362 13.3076 1.49045V2.91417C13.3076 2.971 13.285 3.0255 13.2448 3.06569C13.2046 3.10588 13.1501 3.12845 13.0933 3.12845ZM11.1219 2.69988H12.879V1.70474H11.1219V2.69988Z" fill="white"/>
<path d="M12.6536 1.70529H11.3482C11.2914 1.70529 11.2369 1.68271 11.1967 1.64252C11.1565 1.60234 11.1339 1.54783 11.1339 1.491V0.867C11.1339 0.637057 11.2253 0.416532 11.3878 0.253938C11.5504 0.0913444 11.771 0 12.0009 0C12.2309 0 12.4514 0.0913444 12.614 0.253938C12.7766 0.416532 12.8679 0.637057 12.8679 0.867V1.491C12.8679 1.54783 12.8453 1.60234 12.8051 1.64252C12.765 1.68271 12.7105 1.70529 12.6536 1.70529ZM11.5625 1.27671H12.4393V0.867C12.4393 0.750721 12.3931 0.639205 12.3109 0.556984C12.2287 0.474763 12.1172 0.428571 12.0009 0.428571C11.8846 0.428571 11.7731 0.474763 11.6909 0.556984C11.6087 0.639205 11.5625 0.750721 11.5625 0.867V1.27671Z" fill="white"/>
</g>
<defs>
<clipPath id="clip0_1_1254">
<rect width="24" height="24" fill="white"/>
</clipPath>
</defs>
</svg>
