<svg width="292" height="37" viewBox="0 0 292 37" fill="none" xmlns="http://www.w3.org/2000/svg">
<rect x="0.736816" y="0.789551" width="2.95906" height="35.2398" fill="white"/>
<rect x="5.27631" y="0.789474" width="1.97271" height="35.2398" fill="white"/>
<rect x="9.8158" y="0.789474" width="1.97271" height="35.2398" fill="white"/>
<rect x="18.3273" y="0.789474" width="1.97271" height="35.2398" fill="white"/>
<rect x="33.0818" y="0.789474" width="0.986355" height="35.2398" fill="white"/>
<rect x="36.4864" y="0.789474" width="0.986355" height="35.2398" fill="white"/>
<rect x="39.3235" y="0.789474" width="4.93177" height="35.2398" fill="white"/>
<rect x="48.9699" y="0.789474" width="2.95906" height="35.2398" fill="white"/>
<rect x="54.0768" y="0.789474" width="0.986355" height="35.2398" fill="white"/>
<rect x="58.6163" y="0.789474" width="4.93177" height="35.2398" fill="white"/>
<rect x="65.4255" y="0.789474" width="2.95906" height="35.2398" fill="white"/>
<rect x="71.6673" y="0.789474" width="2.95906" height="35.2398" fill="white"/>
<rect x="78.4777" y="0.789474" width="3.94542" height="35.2398" fill="white"/>
<rect x="84.7195" y="0.789474" width="0.986355" height="35.2398" fill="white"/>
<rect x="89.2578" y="0.789474" width="0.986355" height="35.2398" fill="white"/>
<rect x="96.0681" y="0.789474" width="0.986355" height="35.2398" fill="white"/>
<rect x="99.4727" y="0.789474" width="2.95906" height="35.2398" fill="white"/>
<rect x="107.417" y="0.789474" width="2.95906" height="35.2398" fill="white"/>
<rect x="113.659" y="0.789474" width="4.93177" height="35.2398" fill="white"/>
<rect x="121.604" y="0.789474" width="1.97271" height="35.2398" fill="white"/>
<rect x="125.008" y="0.789474" width="1.97271" height="35.2398" fill="white"/>
<rect x="130.115" y="0.789474" width="3.94542" height="35.2398" fill="white"/>
<rect x="184.737" y="0.789474" width="3.94542" height="35.2398" fill="white"/>
<rect x="239.358" y="0.789474" width="3.94542" height="35.2398" fill="white"/>
<rect x="136.357" y="0.789474" width="2.95906" height="35.2398" fill="white"/>
<rect x="190.979" y="0.789474" width="2.95906" height="35.2398" fill="white"/>
<rect x="245.6" y="0.789474" width="2.95906" height="35.2398" fill="white"/>
<rect x="142.599" y="0.789474" width="5.91813" height="35.2398" fill="white"/>
<rect x="197.22" y="0.789474" width="5.91813" height="35.2398" fill="white"/>
<rect x="251.842" y="0.789474" width="5.91813" height="35.2398" fill="white"/>
<rect x="151.11" y="0.789474" width="0.986355" height="35.2398" fill="white"/>
<rect x="205.732" y="0.789474" width="0.986355" height="35.2398" fill="white"/>
<rect x="260.353" y="0.789474" width="0.986355" height="35.2398" fill="white"/>
<rect x="153.948" y="0.789474" width="0.986355" height="35.2398" fill="white"/>
<rect x="208.569" y="0.789474" width="0.986355" height="35.2398" fill="white"/>
<rect x="263.191" y="0.789474" width="0.986355" height="35.2398" fill="white"/>
<rect x="160.758" y="0.789474" width="2.95906" height="35.2398" fill="white"/>
<rect x="215.379" y="0.789474" width="2.95906" height="35.2398" fill="white"/>
<rect x="270.001" y="0.789474" width="2.95906" height="35.2398" fill="white"/>
<rect x="168.701" y="0.789474" width="4.93177" height="35.2398" fill="white"/>
<rect x="223.322" y="0.789474" width="4.93177" height="35.2398" fill="white"/>
<rect x="277.944" y="0.789474" width="4.93177" height="35.2398" fill="white"/>
<rect x="174.944" y="0.789474" width="1.97271" height="35.2398" fill="white"/>
<rect x="229.565" y="0.789474" width="1.97271" height="35.2398" fill="white"/>
<rect x="284.187" y="0.789474" width="1.97271" height="35.2398" fill="white"/>
<rect x="178.916" y="0.789474" width="2.95906" height="35.2398" fill="white"/>
<rect x="233.537" y="0.789474" width="2.95906" height="35.2398" fill="white"/>
<rect x="288.159" y="0.789474" width="2.95906" height="35.2398" fill="white"/>
<rect x="21.7331" y="0.789474" width="5.91813" height="35.2398" fill="white"/>
</svg>
