<svg width="24" height="24" viewBox="0 0 24 24" fill="none" xmlns="http://www.w3.org/2000/svg">
<path d="M21.6144 21.2452H21.6065V15.6341C21.6065 15.4257 21.4341 15.2567 21.2215 15.2567H20.8567V14.423C20.9688 14.2735 21.1935 13.9146 21.1935 13.4373C21.1935 11.9632 20.0281 11.2917 19.3318 10.8904C19.1888 10.808 18.9998 10.6991 18.9237 10.6339C18.9227 10.629 18.9212 10.6244 18.92 10.6196V10.3071C18.92 10.0987 18.7476 9.92969 18.5351 9.92969C18.3225 9.92969 18.1501 10.0987 18.1501 10.3071V10.6215C18.1501 10.6287 18.1508 10.6356 18.1512 10.6427C18.0693 10.7071 17.8983 10.8057 17.767 10.8813C17.7042 10.9175 17.638 10.9557 17.5699 10.996C17.6741 10.6927 17.7491 10.3391 17.7491 9.94908C17.7491 8.55141 17.2485 7.31854 16.2612 6.28475C15.4317 5.41622 14.4146 4.83014 13.5974 4.35927C13.2095 4.13584 12.8746 3.94284 12.6428 3.76692C12.4689 3.63487 12.4083 3.55283 12.3873 3.51367C12.3877 3.50447 12.3883 3.49541 12.3883 3.48612V2.37742C12.3883 2.16899 12.216 2 12.0034 2C11.7908 2 11.6185 2.16899 11.6185 2.37742V3.39398C11.6109 3.42352 11.6064 3.45428 11.6064 3.48607C11.6064 3.49537 11.6071 3.50443 11.6074 3.51362C11.5864 3.55283 11.5259 3.63487 11.3519 3.76687C11.1201 3.94279 10.7852 4.13579 10.3974 4.35922C9.58015 4.8301 8.56304 5.41618 7.73352 6.2847C6.7462 7.31849 6.2456 8.55137 6.2456 9.94903C6.2456 10.3482 6.32427 10.7091 6.43239 11.0171C6.35718 10.9725 6.2841 10.9302 6.21505 10.8904C6.08543 10.8157 5.91789 10.7191 5.83099 10.6531C5.83191 10.6427 5.83263 10.6322 5.83263 10.6214V10.3071C5.83263 10.0986 5.66028 9.92964 5.4477 9.92964C5.23513 9.92964 5.06278 10.0986 5.06278 10.3071V10.5823C5.05667 10.5989 5.05133 10.6159 5.04767 10.6335C4.97184 10.6987 4.78251 10.8078 4.63932 10.8904C3.94299 11.2916 2.77759 11.9631 2.77759 13.4372C2.77759 13.9743 3.0618 14.3613 3.15024 14.4688V15.2567H2.78538C2.57281 15.2567 2.40046 15.4257 2.40046 15.6341V21.2452H2.38444C2.17186 21.2452 1.99951 21.4142 1.99951 21.6226C1.99951 21.831 2.17186 22 2.38444 22H21.6146C21.8272 22 21.9995 21.831 21.9995 21.6226C21.9995 21.4142 21.8271 21.2452 21.6144 21.2452ZM16.9954 15.2567V14.4881H20.0868V15.2567H16.9954ZM16.2255 12.9578H7.78126V12.2446H16.2255V12.9578ZM18.1571 11.532C18.2955 11.4523 18.4271 11.3761 18.5418 11.2962C18.6585 11.3777 18.7947 11.4565 18.9417 11.5412C19.602 11.9216 20.4236 12.3951 20.4236 13.4372C20.4236 13.5475 20.399 13.6482 20.3671 13.7333H16.9954V12.4516C17.2929 12.0301 17.7695 11.7554 18.1571 11.532ZM10.7874 5.00998C11.2865 4.72239 11.7111 4.47764 11.9974 4.21949C12.2837 4.47764 12.7082 4.72239 13.2073 5.00998C14.7992 5.9272 16.9793 7.18333 16.9793 9.94903C16.9793 10.6689 16.6371 11.2438 16.463 11.4897H7.53057C7.35654 11.2462 7.01545 10.6762 7.01545 9.94903C7.01545 7.18338 9.19556 5.9272 10.7874 5.00998ZM5.02929 11.5412C5.17542 11.457 5.31086 11.3786 5.42711 11.2976C5.54341 11.3786 5.67885 11.457 5.82498 11.5412C6.22082 11.7693 6.70756 12.0499 7.01141 12.4813V13.7333H3.60397C3.57192 13.6482 3.54734 13.5476 3.54734 13.4373C3.54739 12.3951 4.36905 11.9216 5.02929 11.5412ZM3.91999 14.4881H7.01141V15.2567H3.91999V14.4881ZM3.17021 16.0115H7.39633C7.60891 16.0115 7.78126 15.8426 7.78126 15.6341V14.1116C7.78126 14.1113 7.7813 14.111 7.7813 14.1107C7.7813 14.1104 7.78126 14.1101 7.78126 14.1098V13.7126H16.2255V15.6341C16.2255 15.8426 16.3979 16.0115 16.6104 16.0115H20.8366V21.2452H19.7319V20.9149C19.7319 20.6465 19.5826 20.3394 19.2622 19.9482C19.057 19.6979 18.8535 19.504 18.845 19.4958C18.6957 19.3541 18.4586 19.3541 18.3093 19.4958C18.3008 19.504 18.0973 19.6979 17.8921 19.9482C17.5716 20.3394 17.4224 20.6465 17.4224 20.9149V21.2452H15.4595V17.9565C15.4595 17.1771 14.8905 16.3508 13.7683 15.5006C12.9783 14.902 12.1993 14.5094 12.1665 14.493C12.0565 14.4379 11.9262 14.4379 11.8162 14.493C11.7835 14.5094 11.0045 14.902 10.2144 15.5006C9.09226 16.3508 8.52324 17.1771 8.52324 17.9565V21.2452H6.58443V20.9149C6.58443 20.6465 6.43513 20.3394 6.11468 19.9482C5.90952 19.6979 5.70604 19.504 5.69747 19.4958C5.54817 19.3541 5.31115 19.3541 5.16185 19.4958C5.15329 19.504 4.94981 19.6979 4.74464 19.9482C4.42414 20.3394 4.27489 20.6465 4.27489 20.9149V21.2452H3.17021V16.0115ZM18.1922 20.9157C18.197 20.8165 18.3624 20.5681 18.5772 20.3199C18.792 20.5681 18.9574 20.8163 18.9621 20.915V21.2452H18.1922V20.9157ZM12.7733 21.2452H11.2335V18.2525H12.7733V21.2452ZM13.1582 17.4976H10.8486C10.636 17.4976 10.4637 17.6666 10.4637 17.875V21.2452H9.29309V17.9565C9.29309 17.4399 9.7844 16.7821 10.6765 16.1044C11.1975 15.7087 11.7259 15.4034 11.9914 15.2582C12.2569 15.4034 12.7853 15.7087 13.3062 16.1044C14.1984 16.7822 14.6896 17.4399 14.6896 17.9565V21.2452H13.5431V17.875C13.5431 17.6666 13.3708 17.4976 13.1582 17.4976ZM5.04474 20.9157C5.0495 20.8165 5.21487 20.5681 5.42966 20.3199C5.6445 20.5681 5.80987 20.8163 5.81458 20.915V21.2452H5.04474V20.9157Z" fill="white"/>
<path d="M2.40398 21.3183H4.41686C4.69476 21.3183 4.92008 21.093 4.92008 20.8151V19.8716C4.92008 19.5137 4.72489 19.1041 4.3059 18.5826C4.03775 18.2488 3.77167 17.9903 3.76053 17.9794C3.56535 17.7904 3.25549 17.7904 3.0603 17.9794C3.04911 17.9903 2.78309 18.2488 2.51494 18.5826C2.09594 19.1041 1.90076 19.5137 1.90076 19.8716V20.8151C1.90076 21.0931 2.12607 21.3183 2.40398 21.3183ZM3.41073 19.0778C3.6914 19.4082 3.90741 19.7393 3.9137 19.8716V20.3119H2.90726V19.8726C2.91336 19.7403 3.12968 19.4089 3.41073 19.0778Z" fill="white"/>
<path d="M19.5926 21.3183H21.6055C21.8834 21.3183 22.1087 21.093 22.1087 20.8151V19.8716C22.1087 19.5137 21.9135 19.1041 21.4945 18.5826C21.2263 18.2488 20.9603 17.9903 20.9491 17.9794C20.7539 17.7904 20.4441 17.7904 20.2489 17.9794C20.2377 17.9903 19.9717 18.2488 19.7035 18.5826C19.2845 19.1041 19.0894 19.5137 19.0894 19.8716V20.8151C19.0894 21.0931 19.3147 21.3183 19.5926 21.3183ZM20.5993 19.0778C20.88 19.4082 21.096 19.7393 21.1023 19.8716V20.3119H20.0959V19.8726C20.102 19.7403 20.3183 19.4089 20.5993 19.0778Z" fill="white"/>
</svg>
