<svg width="24" height="24" viewBox="0 0 24 24" fill="none" xmlns="http://www.w3.org/2000/svg">
<path d="M6.16667 20C5.52135 20 5 19.4893 5 18.8571C5 18.225 5.52135 17.7143 6.16667 17.7143H17.8333C18.4786 17.7143 19 18.225 19 18.8571C19 19.4893 18.4786 20 17.8333 20H6.16667ZM12.824 15.0929C12.3682 15.5393 11.6281 15.5393 11.1724 15.0929L6.50573 10.5214C6.05 10.075 6.05 9.35 6.50573 8.90357C6.96146 8.45714 7.70156 8.45714 8.15729 8.90357L10.8333 11.525V5.14286C10.8333 4.51071 11.3547 4 12 4C12.6453 4 13.1667 4.51071 13.1667 5.14286V11.525L15.8427 8.90357C16.2984 8.45714 17.0385 8.45714 17.4943 8.90357C17.95 9.35 17.95 10.075 17.4943 10.5214L12.8276 15.0929H12.824Z" fill="white"/>
</svg>
