<svg width="25" height="24" viewBox="0 0 25 24" fill="none" xmlns="http://www.w3.org/2000/svg">
<path d="M7.33544 10.6667C7.56802 10.6667 7.79369 10.6965 8.0092 10.7524C8.00511 10.835 8.00315 10.9176 8.00315 11C8.00315 11.8502 8.23152 12.6471 8.62845 13.3333H3.33426C3.33412 13.3332 3.33396 13.3331 3.33379 13.3329C3.33363 13.3327 3.33348 13.3326 3.33335 13.3324C3.33441 11.8609 4.52928 10.6667 6.00106 10.6667H7.33544ZM22 13.3333H16.7063C17.1033 12.6466 17.3302 11.8496 17.3302 11C17.3302 10.9161 17.3279 10.8332 17.3235 10.7512C17.5379 10.6959 17.7637 10.6667 17.9979 10.6667H19.3323C20.8044 10.6667 21.9995 11.8614 22 13.3333ZM7.16669 4.66667C7.65292 4.66667 8.11923 4.85982 8.46305 5.20364C8.80687 5.54745 9.00002 6.01377 9.00002 6.5C9.00002 6.98623 8.80687 7.45255 8.46305 7.79636C8.11923 8.14018 7.65292 8.33333 7.16669 8.33333C6.68046 8.33333 6.21414 8.14018 5.87032 7.79636C5.52651 7.45255 5.33335 6.98623 5.33335 6.5C5.33335 6.01377 5.52651 5.54745 5.87032 5.20364C6.21414 4.85982 6.68046 4.66667 7.16669 4.66667ZM18.6667 4.66667C19.1529 4.66667 19.6192 4.85982 19.963 5.20364C20.3069 5.54745 20.5 6.01377 20.5 6.5C20.5 6.98623 20.3069 7.45255 19.963 7.79636C19.6192 8.14018 19.1529 8.33333 18.6667 8.33333C18.1805 8.33333 17.7141 8.14018 17.3703 7.79636C17.0265 7.45255 16.8334 6.98623 16.8334 6.5C16.8334 6.01377 17.0265 5.54745 17.3703 5.20364C17.7141 4.85982 18.1805 4.66667 18.6667 4.66667ZM10.3334 11C10.3334 10.3812 10.5792 9.78767 11.0168 9.35008C11.4544 8.9125 12.0478 8.66667 12.6667 8.66667C13.2855 8.66667 13.879 8.9125 14.3166 9.35008C14.7542 9.78767 15 10.3812 15 11C15 11.6188 14.7542 12.2123 14.3166 12.6499C13.879 13.0875 13.2855 13.3333 12.6667 13.3333C12.0478 13.3333 11.4544 13.0875 11.0168 12.6499C10.5792 12.2123 10.3334 11.6188 10.3334 11ZM7.33335 19.1656C7.33335 17.2338 8.9005 15.6667 10.8323 15.6667H14.5011C16.4329 15.6667 18 17.2338 18 19.1656C18 19.2584 17.925 19.3333 17.8323 19.3333H7.50106C7.40825 19.3333 7.33335 19.2583 7.33335 19.1656Z" stroke="#B4B4B4" stroke-width="1.33333"/>
</svg>
