<svg width="24" height="24" viewBox="0 0 24 24" fill="none" xmlns="http://www.w3.org/2000/svg">
<path d="M14.8891 3.90779C13.3282 2.6974 11.1333 2.6974 9.57246 3.90779L4.64939 7.72554C3.60961 8.53188 3 9.76705 3 11.0774V17.2019C3 19.562 4.93625 21.4615 7.30769 21.4615H9.15385C9.49372 21.4615 9.76923 21.186 9.76923 20.8462V15.9231C9.76923 14.5636 10.8713 13.4615 12.2308 13.4615C13.5902 13.4615 14.6923 14.5636 14.6923 15.9231V20.8462C14.6923 21.186 14.9678 21.4615 15.3077 21.4615H17.1538C19.5253 21.4615 21.4615 19.562 21.4615 17.2019V11.0774C21.4615 9.76705 20.8519 8.53188 19.8122 7.72554L14.8891 3.90779Z" fill="#757575"/>
</svg>
