<svg width="24" height="24" viewBox="0 0 24 24" fill="none" xmlns="http://www.w3.org/2000/svg">
<path d="M3.64134 15.6802C3.82599 15.6802 3.97567 15.5305 3.97567 15.3459V14.6772C3.97567 14.4925 3.82599 14.3428 3.64134 14.3428C3.45669 14.3428 3.30701 14.4925 3.30701 14.6772V15.3459C3.30701 15.5305 3.45669 15.6802 3.64134 15.6802Z" fill="white"/>
<path d="M4.97911 15.6802C5.16376 15.6802 5.31344 15.5305 5.31344 15.3459V14.6772C5.31344 14.4925 5.16376 14.3428 4.97911 14.3428C4.79446 14.3428 4.64478 14.4925 4.64478 14.6772V15.3459C4.64478 15.5305 4.79446 15.6802 4.97911 15.6802Z" fill="white"/>
<path d="M7.98784 17.6862C7.80319 17.6862 7.6535 17.8359 7.6535 18.0205V20.3609C7.6535 20.5455 7.80319 20.6952 7.98784 20.6952C8.17248 20.6952 8.32217 20.5455 8.32217 20.3609V18.0205C8.32217 17.8359 8.17248 17.6862 7.98784 17.6862Z" fill="white"/>
<path d="M16.0123 17.6862C15.8277 17.6862 15.678 17.8359 15.678 18.0205V20.3609C15.678 20.5455 15.8277 20.6952 16.0123 20.6952C16.197 20.6952 16.3466 20.5455 16.3466 20.3609V18.0205C16.3466 17.8359 16.197 17.6862 16.0123 17.6862Z" fill="white"/>
<path d="M7.98784 14.0086C7.80319 14.0086 7.6535 14.1583 7.6535 14.3429V15.3459C7.6535 15.5306 7.80319 15.6803 7.98784 15.6803C8.17248 15.6803 8.32217 15.5306 8.32217 15.3459V14.3429C8.32217 14.1583 8.17248 14.0086 7.98784 14.0086Z" fill="white"/>
<path d="M16.0123 14.0086C15.8277 14.0086 15.678 14.1583 15.678 14.3429V15.3459C15.678 15.5306 15.8277 15.6803 16.0123 15.6803C16.197 15.6803 16.3466 15.5306 16.3466 15.3459V14.3429C16.3466 14.1583 16.197 14.0086 16.0123 14.0086Z" fill="white"/>
<path d="M19.021 15.6802C19.2056 15.6802 19.3553 15.5305 19.3553 15.3459V14.6772C19.3553 14.4925 19.2056 14.3428 19.021 14.3428C18.8363 14.3428 18.6866 14.4925 18.6866 14.6772V15.3459C18.6866 15.5305 18.8363 15.6802 19.021 15.6802Z" fill="white"/>
<path d="M20.358 15.6802C20.5427 15.6802 20.6923 15.5305 20.6923 15.3459V14.6772C20.6923 14.4925 20.5427 14.3428 20.358 14.3428C20.1734 14.3428 20.0237 14.4925 20.0237 14.6772V15.3459C20.0237 15.5305 20.1734 15.6802 20.358 15.6802Z" fill="white"/>
<path d="M21.144 3.64421C20.7754 3.28453 20.4842 2.85334 20.2881 2.37708C20.175 2.15013 19.9433 2.00669 19.6897 2.00669C19.4361 2.00669 19.2043 2.15013 19.0912 2.37708C18.9882 2.60766 18.8698 2.83105 18.7368 3.04575C18.2988 3.72779 17.3493 4.19252 17.3493 5.47302C17.3484 5.92158 17.5126 6.3548 17.8107 6.68999C17.5369 6.77927 17.351 7.03387 17.3493 7.32188V7.99055C17.3493 8.35985 17.6487 8.65922 18.018 8.65922V9.99656H5.98198V8.65922C6.35128 8.65922 6.65065 8.35985 6.65065 7.99055V7.32188C6.65189 7.0314 6.46544 6.77335 6.18927 6.68331C6.48583 6.34983 6.64996 5.91928 6.65065 5.47302C6.65065 4.57366 6.17924 4.0755 5.76467 3.64421C5.3953 3.28257 5.104 2.84904 4.90877 2.3704C4.79566 2.14344 4.56389 2 4.31031 2C4.05673 2 3.82497 2.14344 3.71185 2.3704C3.60883 2.60097 3.49043 2.82436 3.35746 3.03907C2.91948 3.72779 1.96997 4.19252 1.96997 5.47302C1.96902 5.92158 2.13326 6.3548 2.43136 6.68999C2.15752 6.77927 1.97163 7.03387 1.96997 7.32188V7.99055C1.96997 8.35985 2.26935 8.65922 2.63864 8.65922V11.3339H2.30431C2.11966 11.3339 1.96997 11.4836 1.96997 11.6682V21.6982C1.96997 21.8829 2.11966 22.0326 2.30431 22.0326H21.6957C21.8803 22.0326 22.03 21.8829 22.03 21.6982V11.6682C22.03 11.4836 21.8803 11.3339 21.6957 11.3339H21.3613V8.65922C21.7306 8.65922 22.03 8.35985 22.03 7.99055V7.32188C22.0313 7.0314 21.8448 6.77335 21.5686 6.68331C21.8652 6.34983 22.0293 5.91928 22.03 5.47302C22.03 4.57366 21.5586 4.0755 21.144 3.64421ZM19.6897 2.64121C19.9131 3.18553 20.2427 3.67992 20.6592 4.09556C21.0504 4.51014 21.3613 4.83778 21.3613 5.47302C21.3613 6.12482 20.833 6.65322 20.1811 6.65322H19.1982C18.5464 6.65322 18.018 6.12482 18.018 5.47302C18.018 4.31288 19.1113 4.14905 19.6897 2.64121ZM21.3613 12.0026V12.6712H18.018V12.0026H21.3613ZM21.3613 17.6862H18.018V17.0176H21.3613V17.6862ZM8.99099 12.0026V12.6712H6.65065V12.0026H8.99099ZM14.3403 12.0026V12.6712H9.65966V12.0026H14.3403ZM17.3493 12.0026V12.6712H15.009V12.0026H17.3493ZM21.3613 16.3489H18.018V13.3399H21.3613V16.3489ZM5.98198 16.3489H2.63864V13.3399H5.98198V16.3489ZM2.63864 17.0176H5.98198V17.6862H2.63864V17.0176ZM6.65065 13.3399H8.99099V16.3489H6.65065V13.3399ZM9.65966 13.3399H14.3403V14.3429H9.65966V13.3399ZM15.009 13.3399H17.3493V16.3489H15.009V13.3399ZM18.018 10.6652V11.3339H5.98198V10.6652H18.018ZM2.63864 7.99055V7.32188H5.98198V7.99055H2.63864ZM4.31031 2.64121C4.53378 3.18553 4.86338 3.67992 5.27988 4.09556C5.67105 4.51014 5.98198 4.83778 5.98198 5.47302C5.98198 6.12482 5.45359 6.65322 4.80178 6.65322H3.81884C3.16704 6.65322 2.63864 6.12482 2.63864 5.47302C2.63864 4.31288 3.73191 4.14905 4.31031 2.64121ZM3.30731 8.65922H5.31331V11.3339H3.30731V8.65922ZM2.63864 12.0026H5.98198V12.6712H2.63864V12.0026ZM2.63864 18.3549H5.98198V21.3639H2.63864V18.3549ZM6.65065 17.0176H8.99099V21.3639H6.65065V17.0176ZM9.65966 15.0116H14.3403V21.3639H13.6717V18.2178C13.6717 17.3519 13.3607 16.7869 12.4447 15.9845C12.1912 15.7588 11.8088 15.7588 11.5553 15.9845C10.6393 16.7869 10.3283 17.3519 10.3283 18.2178V21.3639H9.65966V15.0116ZM10.997 21.3639V18.2178C10.997 17.6361 11.1474 17.2148 12 16.486C12.8492 17.2315 13.003 17.6361 13.003 18.2178V21.3639H10.997ZM15.009 17.0176H17.3493V21.3639H15.009V17.0176ZM18.018 21.3639V18.3549H21.3613V21.3639H18.018ZM20.6927 11.3339H18.6867V8.65922H20.6927V11.3339ZM18.018 7.99055V7.32188H21.3613V7.99055H18.018Z" fill="white"/>
</svg>
