<svg width="18" height="18" viewBox="0 0 18 18" fill="none" xmlns="http://www.w3.org/2000/svg">
<path d="M9.1048 9.39465C9.52378 9.39474 9.93338 9.27059 10.2818 9.0379C10.6302 8.80521 10.9018 8.47442 11.0622 8.08737C11.2227 7.70032 11.2647 7.27439 11.1831 6.86344C11.1014 6.45249 10.8998 6.07498 10.6036 5.77864C10.3074 5.48231 9.92998 5.28046 9.51907 5.19862C9.10816 5.11677 8.68221 5.15862 8.29508 5.31886C7.90796 5.47909 7.57704 5.75053 7.34417 6.09884C7.11131 6.44714 6.98696 6.85668 6.98685 7.27566C6.98727 7.83734 7.21051 8.37591 7.60759 8.77318C8.00466 9.17044 8.54312 9.39395 9.1048 9.39465ZM9.1048 6.09996C9.33749 6.09986 9.56497 6.16878 9.75849 6.298C9.952 6.42722 10.1028 6.61093 10.1919 6.82589C10.281 7.04085 10.3043 7.27741 10.259 7.50563C10.2136 7.73385 10.1015 7.94348 9.93698 8.10801C9.77244 8.27254 9.5628 8.38457 9.33457 8.42993C9.10635 8.47529 8.8698 8.45195 8.65484 8.36284C8.43989 8.27374 8.25619 8.12289 8.12699 7.92937C7.99779 7.73585 7.92888 7.50835 7.929 7.27566C7.92934 6.96394 8.05334 6.66508 8.27377 6.44466C8.4942 6.22425 8.79307 6.10028 9.1048 6.09996Z" fill="white"/>
<path d="M4.16229 14.0476C4.16229 15.6122 6.70918 16.4562 9.10528 16.4562C11.5014 16.4562 14.0483 15.6122 14.0483 14.0476C14.0483 13.0514 12.984 12.2417 11.2299 11.8566L12.6258 9.67365C13.3194 8.73341 13.6327 7.5504 13.4994 6.375C13.3661 5.1996 12.7967 4.12407 11.9117 3.37604C11.3287 2.87934 10.6327 2.54553 9.88998 2.40642C9.14727 2.2673 8.38255 2.32749 7.66863 2.58127C6.95472 2.83505 6.31537 3.27397 5.81146 3.85623C5.30754 4.4385 4.95583 5.14473 4.78982 5.9077C4.64683 6.55254 4.64248 7.22208 4.7771 7.86885C4.91172 8.51562 5.182 9.12378 5.56877 9.65021L6.98052 11.8566C5.2264 12.2417 4.16229 13.0514 4.16229 14.0476ZM5.6766 6.11141C5.82564 5.43188 6.15943 4.81082 6.63847 4.32174C7.11751 3.83267 7.72174 3.49606 8.37964 3.35176C8.61544 3.30356 8.85521 3.27925 9.09556 3.27918C9.75271 3.27385 10.398 3.46046 10.9576 3.81761C11.5171 4.17477 11.9682 4.68803 12.2593 5.2986C12.5503 5.90917 12.6695 6.59236 12.6032 7.26988C12.5369 7.94741 12.2878 8.59188 11.8844 9.12946L10.0821 11.9477L10.0743 11.96L9.3887 13.0318C9.35764 13.0802 9.31554 13.1198 9.26613 13.1472C9.21673 13.1747 9.16155 13.189 9.1055 13.189C9.04946 13.189 8.99428 13.1747 8.94487 13.1472C8.89547 13.1198 8.85336 13.0802 8.82231 13.0318L8.13519 11.9587L8.12911 11.9493L6.30958 9.1064C5.99789 8.68621 5.77956 8.19991 5.67014 7.6822C5.56073 7.16449 5.56293 6.62813 5.6766 6.11141ZM7.52665 12.7102L8.06515 13.552C8.17911 13.7297 8.3337 13.8755 8.51518 13.9763C8.69665 14.0772 8.89936 14.1299 9.10528 14.1299C9.31119 14.1299 9.5139 14.0772 9.69538 13.9763C9.87685 13.8755 10.0314 13.7297 10.1454 13.552L10.6836 12.7103C12.222 12.9816 13.1394 13.5848 13.1394 14.0475C13.1394 14.6459 11.5679 15.5147 9.10482 15.5147C6.64178 15.5147 5.07024 14.6459 5.07024 14.0475C5.0707 13.585 5.98809 12.9815 7.52665 12.7102Z" fill="white"/>
</svg>
