<svg width="24" height="24" viewBox="0 0 24 24" fill="none" xmlns="http://www.w3.org/2000/svg">
<mask id="mask0_1_1234" style="mask-type:alpha" maskUnits="userSpaceOnUse" x="0" y="0" width="24" height="24">
<rect width="24" height="24" fill="#D9D9D9"/>
</mask>
<g mask="url(#mask0_1_1234)">
<path d="M12 20.9404C11.8051 20.9404 11.6103 20.9067 11.4154 20.8394C11.2205 20.7721 11.0443 20.6679 10.8866 20.5269C9.98915 19.7 9.14942 18.8484 8.36737 17.9721C7.58532 17.0958 6.90551 16.2199 6.32794 15.3443C5.75037 14.4686 5.29332 13.6007 4.95679 12.7404C4.62024 11.8801 4.45197 11.0494 4.45197 10.2481C4.45197 7.94041 5.19844 6.07216 6.69139 4.64331C8.18432 3.21446 9.95387 2.50003 12 2.50003C14.0462 2.50003 15.8157 3.21446 17.3086 4.64331C18.8016 6.07216 19.5481 7.94041 19.5481 10.2481C19.5481 11.0494 19.3798 11.8785 19.0432 12.7356C18.7067 13.5927 18.2513 14.4606 17.6769 15.3395C17.1025 16.2183 16.4243 17.0942 15.6423 17.9673C14.8602 18.8404 14.0205 19.6904 13.1231 20.5173C12.9677 20.6583 12.7911 20.7641 12.5933 20.8346C12.3956 20.9051 12.1978 20.9404 12 20.9404ZM12.0017 11.8654C12.4993 11.8654 12.9247 11.6882 13.2779 11.3339C13.6311 10.9795 13.8077 10.5536 13.8077 10.056C13.8077 9.55842 13.6305 9.13303 13.2762 8.77983C12.9219 8.42663 12.4959 8.25003 11.9983 8.25003C11.5007 8.25003 11.0753 8.4272 10.7221 8.78153C10.3689 9.13586 10.1923 9.56182 10.1923 10.0594C10.1923 10.557 10.3695 10.9824 10.7238 11.3356C11.0782 11.6888 11.5041 11.8654 12.0017 11.8654Z" fill="#FF1759"/>
</g>
<defs>
<linearGradient id="paint0_linear_1_1234" x1="12" y1="2.50003" x2="12" y2="20.9404" gradientUnits="userSpaceOnUse">
<stop stop-color="#FF1759"/>
<stop offset="1" stop-color="#BF0036"/>
</linearGradient>
</defs>
</svg>
