<svg width="24" height="24" viewBox="0 0 24 24" fill="none" xmlns="http://www.w3.org/2000/svg">
<path d="M16.1788 12.8172C17.6549 12.7784 17.6548 10.6166 16.1788 10.578C14.7023 10.6168 14.7028 12.7787 16.1788 12.8172ZM16.1788 11.1405C16.9109 11.1537 16.9106 12.2417 16.1788 12.2547C15.4467 12.2416 15.4466 11.1535 16.1788 11.1405Z" fill="white"/>
<path d="M7.95336 12.8172C9.42971 12.7785 9.4296 10.6165 7.95332 10.578C6.47682 10.6168 6.4773 12.7787 7.95336 12.8172ZM7.95336 11.1405C8.68569 11.1536 8.6854 12.2417 7.95334 12.2547C7.22122 12.2416 7.22114 11.1535 7.95336 11.1405Z" fill="white"/>
<path d="M18.75 21.4737H17.6897C17.6979 20.8695 17.6846 11.7036 17.6897 10.0425C17.7921 10.0345 17.8811 9.96575 17.9132 9.86369L18.2051 8.93476C18.2304 8.85475 18.2169 8.76704 18.169 8.69885C18.0856 8.5453 17.8266 8.59946 17.6898 8.5904V7.33664C17.6898 7.19136 17.5757 7.07349 17.4351 7.07349H17.1939V6.20436C17.1875 5.98738 17.0021 5.91878 16.8166 5.94122C16.8166 5.9412 16.8166 4.22316 16.8166 4.22316C16.8166 4.07787 16.7025 3.96 16.5619 3.96H14.6703V2.84553C14.6703 2.70025 14.5562 2.58238 14.4156 2.58238H13.6125L13.4513 2.16571C13.4127 2.06583 13.319 2.00021 13.2148 2.00021H10.7851C10.5283 1.98956 10.4874 2.38048 10.3874 2.58237H9.58432C9.44368 2.58237 9.32958 2.70024 9.32958 2.84553V3.96H7.43804C7.29739 3.96 7.18329 4.07787 7.18329 4.22315V5.9412C7.00592 5.92151 6.80826 5.98291 6.80598 6.20437C6.80597 6.20435 6.80597 7.07348 6.80597 7.07348H6.56483C6.42418 7.07348 6.31008 7.19136 6.31008 7.33664V8.59039H6.03709C5.87009 8.58582 5.73796 8.77131 5.79478 8.93476C5.79478 8.93476 6.08668 9.86368 6.08668 9.86368C6.11881 9.96569 6.20775 10.0344 6.31008 10.0425V21.4737H5.24995C4.92305 21.4711 4.91037 21.9977 5.24997 22C5.24995 22 18.75 22 18.75 22C19.0799 21.9923 19.0868 21.4798 18.75 21.4737ZM9.83907 3.10869H10.5599C10.664 3.10869 10.7577 3.04307 10.7964 2.94319L10.9576 2.52652H13.0423L13.2035 2.94319C13.2422 3.04307 13.3359 3.10869 13.4401 3.10869H14.1608V3.9528H9.83908L9.83907 3.10869ZM7.69278 4.48631H16.3071V5.93401H7.69278V4.48631ZM6.81957 13.7226H9.73061C9.73185 13.7888 9.72971 13.9337 9.73061 14.0008H6.81957L6.81957 13.7226ZM13.7611 10.0456V12.3622C13.3447 11.8328 12.7102 11.4935 12 11.4935C11.2907 11.4935 10.6569 11.8318 10.2404 12.3599V10.0456H13.7611ZM14.2706 13.7226H17.1802V14.0008H14.2693L14.2706 13.7226ZM17.1802 13.1963H14.2706V10.0456H17.1802V13.1963ZM17.6124 9.11671L17.4858 9.51933C17.4858 9.51933 6.57216 9.51989 6.51411 9.51933C6.51407 9.51933 6.38753 9.11671 6.38753 9.11671H17.6124ZM9.73094 10.0456V13.1963H6.81957V10.0456H9.73094ZM6.81957 14.5272H9.73061V16.0122H6.81957V14.5272ZM6.81957 16.5385H9.73061V16.8167H6.81957V16.5385ZM10.2401 13.8377C10.2401 12.8353 11.0296 12.0198 12 12.0198C12.9704 12.0198 13.7598 12.8353 13.7598 13.8377C13.7598 13.8377 13.7598 19.6768 13.7598 21.4737H10.2401C10.2401 21.4737 10.2411 14.626 10.2401 13.8377ZM14.2693 14.5272H17.1802V16.0122H14.2693V14.5272ZM14.2693 16.5385H17.1802V16.8167H14.2693V16.5385ZM7.31547 6.46751H16.6844V7.07349H7.31547V6.46751ZM6.81957 7.5998H17.1803V8.5904H6.81957V7.5998ZM6.81957 21.4737V17.3431H9.7306V21.4737H6.81957ZM14.2693 21.4737V17.3431H17.1802V21.4737H14.2693Z" fill="white"/>
</svg>
