<svg width="24" height="24" viewBox="0 0 24 24" fill="none" xmlns="http://www.w3.org/2000/svg">
<path fill-rule="evenodd" clip-rule="evenodd" d="M12.2225 6.34265C11.6765 6.1165 11.0913 6.00009 10.5003 6.00009C9.90933 6.00009 9.32414 6.1165 8.77815 6.34265C8.23216 6.56881 7.73606 6.90029 7.31818 7.31818C6.90029 7.73606 6.56881 8.23216 6.34265 8.77815C6.1165 9.32414 6.00009 9.90933 6.00009 10.5003C6.00009 11.0913 6.1165 11.6765 6.34265 12.2225C6.56881 12.7685 6.90029 13.2646 7.31818 13.6824C7.73606 14.1003 8.23216 14.4318 8.77815 14.658C9.32414 14.8841 9.90933 15.0005 10.5003 15.0005C11.0913 15.0005 11.6765 14.8841 12.2225 14.658C12.7685 14.4318 13.2646 14.1003 13.6824 13.6824C14.1003 13.2646 14.4318 12.7685 14.658 12.2225C14.8841 11.6765 15.0005 11.0913 15.0005 10.5003C15.0005 9.90933 14.8841 9.32414 14.658 8.77815C14.4318 8.23216 14.1003 7.73606 13.6824 7.31818C13.2646 6.90029 12.7685 6.56881 12.2225 6.34265ZM14.9023 15.2833C13.7048 16.3854 12.1343 17.0006 10.5003 17.0006C8.77632 17.0006 7.12294 16.3158 5.9039 15.0967C4.68485 13.8777 4 12.2243 4 10.5003C4 8.77632 4.68485 7.12294 5.9039 5.9039C7.12294 4.68485 8.77632 4 10.5003 4C12.2243 4 13.8777 4.68485 15.0967 5.9039C16.3158 7.12294 17.0006 8.77632 17.0006 10.5003C17.0006 12.1343 16.3854 13.7048 15.2833 14.9023C15.4493 14.7221 15.6054 14.5327 15.7506 14.3349L19.7102 18.2913C20.1008 18.682 20.1008 19.3164 19.7102 19.707C19.3195 20.0977 18.6851 20.0977 18.2945 19.707L14.3349 15.7506C14.5327 15.6054 14.7221 15.4493 14.9023 15.2833Z" fill="white"/>
</svg>
