<svg width="18" height="18" viewBox="0 0 18 18" fill="none" xmlns="http://www.w3.org/2000/svg">
<path d="M14.5127 7.2959L10.725 3.50818C10.4099 3.19303 9.91641 3.19332 9.60153 3.50818L3.69278 9.41692C3.53774 9.57197 3.4515 9.78489 3.45631 10.0009C3.46083 10.2102 3.54654 10.4033 3.69786 10.5456L4.50459 11.3523C4.64432 11.4923 4.86537 11.5085 5.02415 11.3912C5.48741 11.049 6.13217 11.0936 6.52408 11.4954C6.92558 11.9067 6.97443 12.5529 6.6376 12.9986C6.51742 13.1577 6.53287 13.3807 6.67379 13.5216L7.48558 14.3334C7.63663 14.4843 7.84236 14.5702 8.05262 14.5702C8.0582 14.5702 8.06394 14.57 8.06952 14.5699C8.27885 14.5654 8.47197 14.4798 8.61421 14.3284L14.5178 8.4244C14.6728 8.26949 14.7589 8.05669 14.7542 7.84059C14.7497 7.63126 14.6642 7.43817 14.5127 7.2959ZM10.1714 4.06858C10.1695 4.06964 10.1665 4.07017 10.1639 4.07069L9.88394 3.7907L10.1714 4.06858ZM8.04744 13.766L7.46042 13.179C7.81853 12.453 7.68533 11.5421 7.09552 10.9376C6.50771 10.3358 5.59225 10.1996 4.84834 10.5669L4.26026 9.97891L10.1634 4.0759L13.9504 7.86294L8.04744 13.766Z" fill="white"/>
<path d="M8.75661 4.86846L8.18854 5.42928L9.21312 6.46713L9.78119 5.90631L8.75661 4.86846Z" fill="white"/>
<path d="M12.1342 8.2578L11.5732 8.82608L12.6114 9.85081L13.1723 9.28253L12.1342 8.2578Z" fill="white"/>
<path d="M10.4451 6.55634L9.88062 7.12083L10.9185 8.15875L11.483 7.59425L10.4451 6.55634Z" fill="white"/>
</svg>
