<svg width="25" height="24" viewBox="0 0 25 24" fill="none" xmlns="http://www.w3.org/2000/svg">
<path fill-rule="evenodd" clip-rule="evenodd" d="M5.4439 18.5217C4.91088 18.5217 4.47292 18.0882 4.46783 17.5552L4.33339 4.05583C4.33101 3.79577 4.43014 3.54997 4.61314 3.36324C4.79647 3.17651 5.04023 3.07228 5.30029 3.06957L7.5546 3.04716C7.60858 3.04614 7.66154 3.06787 7.6999 3.10623C7.73861 3.14426 7.76034 3.19654 7.76034 3.25086V3.26376C7.76611 3.83277 8.23496 4.29721 8.80567 4.29721L8.81653 4.29687C9.39301 4.29144 9.85745 3.81749 9.85168 3.24102V3.23049C9.85032 3.17617 9.87103 3.12355 9.90871 3.08417C9.94674 3.04512 9.99868 3.02272 10.053 3.02238L12.3172 2.99997C12.8505 2.99997 13.2885 3.43352 13.2936 3.96688L13.428 17.4662C13.4334 18.0043 12.9996 18.4467 12.4611 18.4521L10.2068 18.4745C10.1538 18.4752 10.1009 18.4542 10.0625 18.4165C10.0238 18.3785 10.0017 18.3269 10.0014 18.2729C9.99563 17.7022 9.52677 17.2374 8.95573 17.2374L8.9452 17.2377C8.36839 17.2432 7.90394 17.7171 7.90972 18.2936C7.9104 18.3476 7.88935 18.3999 7.85166 18.4382C7.81364 18.4769 7.76203 18.499 7.70805 18.4993L5.4439 18.5217ZM5.53081 6.38618C5.41912 6.38618 5.32813 6.29621 5.32711 6.18451C5.32609 6.07214 5.4164 5.97979 5.52878 5.97877L6.10831 5.973H6.11069C6.22204 5.973 6.31303 6.06297 6.31405 6.17467C6.31541 6.28704 6.2251 6.37905 6.11238 6.38041L5.53285 6.38618C5.53217 6.38618 5.53149 6.38618 5.53081 6.38618ZM6.36192 14.1201C5.96606 14.1201 5.63742 13.7982 5.62927 13.4024L5.52402 8.15839C5.52029 7.96487 5.59226 7.78188 5.72739 7.64336C5.86251 7.50484 6.04347 7.42812 6.23732 7.4271L11.3957 7.40163H11.3995C11.7953 7.40163 12.124 7.72382 12.1321 8.11968L12.2374 13.3637C12.2414 13.5572 12.1691 13.7402 12.034 13.8787C11.8989 14.0172 11.7179 14.0939 11.5244 14.0949L6.36565 14.1201C6.36531 14.1201 6.36226 14.1201 6.36192 14.1201ZM11.3995 7.80904L6.23902 7.8345C6.1555 7.83484 6.07742 7.86811 6.01902 7.92787C5.96063 7.98762 5.92973 8.06638 5.93109 8.15024L6.03667 13.3939C6.04007 13.5697 6.18606 13.713 6.36192 13.713H6.36362L11.5224 13.6875C11.6059 13.6872 11.684 13.6539 11.7424 13.5942C11.8008 13.5344 11.8317 13.4553 11.8303 13.3718L11.7247 8.12783C11.721 7.95197 11.5753 7.80904 11.3995 7.80904ZM11.6507 15.5487C11.5394 15.5487 11.4484 15.4591 11.4473 15.3474C11.446 15.2347 11.5363 15.1427 11.6487 15.1416L12.2285 15.1359H12.2306C12.3423 15.1359 12.4333 15.2255 12.4343 15.3375C12.4353 15.4499 12.345 15.5419 12.2326 15.5429L11.6527 15.5487C11.6521 15.5487 11.6514 15.5487 11.6507 15.5487ZM10.1437 15.564C10.0323 15.564 9.94131 15.474 9.93995 15.3623C9.93893 15.2496 10.0292 15.1576 10.1416 15.1566L10.7215 15.1508H10.7235C10.8349 15.1508 10.9259 15.2404 10.9272 15.3525C10.9282 15.4648 10.8379 15.5569 10.7256 15.5582L10.1457 15.564C10.145 15.564 10.1443 15.564 10.1437 15.564ZM8.63659 15.5789C8.52524 15.5789 8.43425 15.4889 8.43289 15.3773C8.43187 15.2645 8.52218 15.1725 8.63456 15.1715L9.21443 15.1657H9.21647C9.32782 15.1657 9.41881 15.2557 9.41983 15.3674C9.42119 15.4798 9.33088 15.5718 9.2185 15.5731L8.63863 15.5789C8.63795 15.5789 8.63727 15.5789 8.63659 15.5789ZM7.12954 15.5939C7.01818 15.5939 6.92719 15.5039 6.92584 15.3922C6.92482 15.2798 7.01512 15.1875 7.1275 15.1865L7.70737 15.1807H7.70941C7.82077 15.1807 7.91175 15.2706 7.91277 15.3823C7.91413 15.4947 7.82382 15.5867 7.71145 15.5881L7.13157 15.5939C7.1309 15.5939 7.13022 15.5939 7.12954 15.5939ZM5.62248 15.6088C5.51078 15.6088 5.42014 15.5188 5.41878 15.4071C5.41776 15.2948 5.50807 15.2024 5.62044 15.2014L6.20032 15.1956H6.20235C6.31371 15.1956 6.4047 15.2856 6.40572 15.3973C6.40707 15.5097 6.31677 15.602 6.20405 15.603L5.62452 15.6088C5.62384 15.6088 5.62316 15.6088 5.62248 15.6088ZM11.559 6.32609C11.4477 6.32609 11.3567 6.23612 11.3557 6.12442C11.3543 6.01205 11.4446 5.92004 11.5573 5.91902L12.1369 5.91325H12.1389C12.2506 5.91325 12.3416 6.00288 12.3426 6.11458C12.3436 6.22729 12.2533 6.3193 12.141 6.32031L11.5611 6.32609C11.5604 6.32609 11.5597 6.32609 11.559 6.32609ZM10.052 6.34102C9.94063 6.34102 9.84964 6.2514 9.84828 6.13936C9.84726 6.02698 9.93757 5.93498 10.0499 5.93396L10.6298 5.92819H10.6319C10.7432 5.92819 10.8342 6.01782 10.8356 6.12985C10.8366 6.24223 10.7463 6.33423 10.6339 6.33525L10.054 6.34102C10.0533 6.34102 10.0527 6.34102 10.052 6.34102ZM8.54493 6.3563C8.43323 6.3563 8.34258 6.26633 8.34123 6.15464C8.34021 6.04192 8.43052 5.94992 8.54289 5.9489L9.12276 5.94313C9.2365 5.94109 9.32714 6.03208 9.32816 6.14479C9.32952 6.25717 9.23921 6.34917 9.12684 6.35053L8.54697 6.3563C8.54629 6.3563 8.54561 6.3563 8.54493 6.3563ZM7.03787 6.37124C6.92617 6.37124 6.83519 6.28127 6.83417 6.16958C6.83315 6.05686 6.92346 5.96485 7.03583 5.96384L7.61571 5.95806C7.72706 5.95569 7.82009 6.04735 7.82111 6.15973C7.82246 6.27211 7.73216 6.36411 7.61944 6.36547L7.03991 6.37124C7.03923 6.37124 7.03855 6.37124 7.03787 6.37124Z" fill="#757575"/>
<path fill-rule="evenodd" clip-rule="evenodd" d="M12.3864 20.3798C12.2208 20.3798 12.0575 20.3374 11.9098 20.2542L9.94643 19.1464C9.89923 19.1199 9.86461 19.0758 9.85035 19.0235C9.83575 18.9716 9.84254 18.9159 9.86902 18.8687C9.88124 18.847 9.89278 18.8249 9.90365 18.8025C9.99667 18.8551 10.1029 18.8829 10.2109 18.8819L12.4652 18.8595C13.2284 18.852 13.8429 18.2253 13.8354 17.4621L13.701 3.96278C13.6993 3.78827 13.665 3.62124 13.6039 3.4671L15.3632 4.45981C15.4104 4.48629 15.4454 4.53111 15.4596 4.58339C15.4739 4.63601 15.4664 4.69203 15.4393 4.73922L15.4328 4.75009C15.2967 4.99147 15.2624 5.2736 15.3374 5.54283C15.4124 5.81205 15.5876 6.03579 15.831 6.17295C16.0741 6.31011 16.3563 6.34473 16.6255 6.2697C16.8947 6.19467 17.1184 6.01915 17.2556 5.77607L17.261 5.76622C17.2872 5.71869 17.3313 5.68372 17.3836 5.66878C17.4359 5.65385 17.4919 5.66063 17.5394 5.68746L19.5031 6.79526C19.972 7.05973 20.1383 7.65658 19.8735 8.12543L13.2403 19.8835C13.1123 20.1099 12.9035 20.2732 12.6516 20.3435C12.564 20.3676 12.475 20.3798 12.3864 20.3798Z" fill="#757575"/>
<defs>
<linearGradient id="paint0_linear_664_18" x1="8.8807" y1="2.99997" x2="8.8807" y2="18.5217" gradientUnits="userSpaceOnUse">
<stop stop-color="#FF1759"/>
<stop offset="1" stop-color="#BF0036"/>
</linearGradient>
<linearGradient id="paint1_linear_664_18" x1="14.9212" y1="3.4671" x2="14.9212" y2="20.3798" gradientUnits="userSpaceOnUse">
<stop stop-color="#FF1759"/>
<stop offset="1" stop-color="#BF0036"/>
</linearGradient>
</defs>
</svg>
